<?xml version="1.0" encoding="utf-8"?>
<!-- Generator: Adobe Illustrator 26.0.0, SVG Export Plug-In . SVG Version: 6.00 Build 0)  -->
<svg version="1.1" id="Capa_1" xmlns="http://www.w3.org/2000/svg" xmlns:xlink="http://www.w3.org/1999/xlink" x="0px" y="0px"
	 viewBox="0 0 838.9 265.2" style="enable-background:new 0 0 838.9 265.2;" xml:space="preserve">
<style type="text/css">
	.st0{fill:#172845;}
	.st1{fill:url(#SVGID_1_);}
	.st2{opacity:0.58;}
	.st3{fill:url(#SVGID_00000135673729835298780110000009345219313899347099_);}
	.st4{fill:url(#SVGID_00000113327239104961743040000013918275185900030369_);}
	.st5{fill:#FFFFFF;}
	.st6{fill:url(#SVGID_00000128454703853150839050000012286204658214461330_);}
	.st7{fill:url(#SVGID_00000144300124660161332230000001168518742247290520_);}
	.st8{fill:url(#SVGID_00000144312794390030492000000010766463971450771607_);}
	.st9{fill:url(#SVGID_00000038388636437224447370000002654606481542995896_);}
	.st10{fill:url(#SVGID_00000015355716545107828720000006550228744348857500_);}
	.st11{fill:url(#SVGID_00000177462113741261796930000014411169646881868432_);}
	.st12{fill:url(#SVGID_00000125568968816103156020000004715415725451058601_);}
	.st13{fill:url(#SVGID_00000152948568957681903080000007813849781056621464_);}
	.st14{fill:#3E5370;}
	.st15{fill:#0F73B7;}
	.st16{fill:url(#SVGID_00000175323803512726569730000010079651020433095306_);}
	.st17{fill:url(#SVGID_00000169517176432945587540000007259068809086059695_);}
</style>
<rect x="517.3" y="-1843.8" class="st0" width="1170.6" height="1108.6"/>
<g>
	
		<linearGradient id="SVGID_1_" gradientUnits="userSpaceOnUse" x1="904.5565" y1="-1326.0206" x2="1169.0825" y2="-1326.0206" gradientTransform="matrix(0.7071 0.7071 -0.7071 0.7071 -258.4528 -214.968)">
		<stop  offset="0" style="stop-color:#369BED"/>
		<stop  offset="1" style="stop-color:#328DD9"/>
	</linearGradient>
	<path class="st1" d="M1433.5-295.6l-145-145c-11.6-11.6-11.6-30.4,0-42l60.7-60.7c11.6-11.6,30.4-11.6,42,0l145,145
		c11.6,11.6,11.6,30.4,0,42l-60.7,60.7C1463.9-284,1445.1-284,1433.5-295.6z"/>
	<g class="st2">
		
			<image style="overflow:visible;" width="264" height="233" xlink:href="5A8C5623.png"  transform="matrix(1 0 0 1 1239 -532.9068)">
		</image>
	</g>
	
		<linearGradient id="SVGID_00000063603434079136772210000011045144314091552938_" gradientUnits="userSpaceOnUse" x1="1280.0646" y1="-419.4641" x2="1544.5906" y2="-419.4641">
		<stop  offset="0" style="stop-color:#369BED"/>
		<stop  offset="1" style="stop-color:#328DD9"/>
	</linearGradient>
	<path style="fill:url(#SVGID_00000063603434079136772210000011045144314091552938_);" d="M1514.9-346.8h-205.1
		c-16.4,0-29.7-13.3-29.7-29.7v-85.8c0-16.4,13.3-29.7,29.7-29.7h205.1c16.4,0,29.7,13.3,29.7,29.7v85.8
		C1544.6-360.1,1531.3-346.8,1514.9-346.8z"/>
	
		<linearGradient id="SVGID_00000127035620948740798520000018353140700043528848_" gradientUnits="userSpaceOnUse" x1="1280.0646" y1="-419.4641" x2="1544.5906" y2="-419.4641">
		<stop  offset="0" style="stop-color:#369BED"/>
		<stop  offset="1" style="stop-color:#328DD9"/>
	</linearGradient>
	<path style="fill:url(#SVGID_00000127035620948740798520000018353140700043528848_);" d="M1514.9-346.8h-205.1
		c-16.4,0-29.7-13.3-29.7-29.7v-85.8c0-16.4,13.3-29.7,29.7-29.7h205.1c16.4,0,29.7,13.3,29.7,29.7v85.8
		C1544.6-360.1,1531.3-346.8,1514.9-346.8z"/>
	<path class="st5" d="M1396-373h-15c-1.7,0-3.1-0.4-4.2-1.2c-1.1-0.8-1.8-1.8-2.3-3l-4.9-14.6h-31.8l-4.9,14.6
		c-0.4,1.1-1.1,2-2.2,2.9c-1.1,0.9-2.5,1.3-4.1,1.3h-15.1l32.3-83.5h19.8L1396-373z M1342.3-405h22.8l-7.7-22.9
		c-0.5-1.5-1.1-3.2-1.7-5.1c-0.7-2-1.3-4.1-2-6.4c-0.6,2.3-1.2,4.5-1.9,6.5c-0.7,2-1.3,3.7-1.8,5.2L1342.3-405z"/>
	<path class="st5" d="M1457.7-406.7c0.7,1.6,1.4,3.2,2,4.8c0.6-1.7,1.3-3.3,2.1-4.9c0.7-1.6,1.5-3.1,2.2-4.6l21.4-42.2
		c0.4-0.7,0.8-1.3,1.2-1.7s0.9-0.7,1.3-0.9c0.5-0.2,1.1-0.3,1.7-0.3c0.6,0,1.4,0,2.2,0h14.8v83.5h-17.1v-48.1c0-2.3,0.1-4.9,0.3-7.6
		l-22.1,42.9c-0.7,1.3-1.6,2.4-2.8,3c-1.2,0.7-2.5,1-4,1h-2.6c-1.5,0-2.8-0.3-4-1c-1.2-0.7-2.1-1.7-2.8-3l-22.2-43
		c0.2,1.3,0.3,2.7,0.3,4c0.1,1.3,0.1,2.5,0.1,3.6v48.1h-17.1v-83.5h14.8c0.8,0,1.6,0,2.2,0c0.6,0,1.2,0.1,1.7,0.3
		c0.5,0.2,0.9,0.5,1.3,0.9s0.8,1,1.2,1.7l21.5,42.4C1456.2-409.8,1456.9-408.3,1457.7-406.7z"/>
	<g>
		
			<text transform="matrix(0.9918 0 0 1 1574.79 -372.7437)" class="st5" style="font-family:'NasalizationRg-Regular'; font-size:112.3181px;">Solutions</text>
	</g>
</g>
<g>
	
		<linearGradient id="SVGID_00000026151793405675669880000007557242830117683647_" gradientUnits="userSpaceOnUse" x1="1280.3789" y1="132.5775" x2="1544.905" y2="132.5775">
		<stop  offset="0" style="stop-color:#369BED"/>
		<stop  offset="1" style="stop-color:#328DD9"/>
	</linearGradient>
	<path style="fill:url(#SVGID_00000026151793405675669880000007557242830117683647_);" d="M1515.2,205.2h-205.1
		c-16.4,0-29.7-13.3-29.7-29.7V89.7c0-16.4,13.3-29.7,29.7-29.7h205.1c16.4,0,29.7,13.3,29.7,29.7v85.8
		C1544.9,191.9,1531.6,205.2,1515.2,205.2z"/>
	
		<linearGradient id="SVGID_00000020363700802599108990000013141357139924306564_" gradientUnits="userSpaceOnUse" x1="1295.1312" y1="-935.8906" x2="1559.6572" y2="-935.8906" gradientTransform="matrix(0.7071 0.7071 -0.7071 0.7071 -258.4528 -214.968)">
		<stop  offset="0" style="stop-color:#369BED"/>
		<stop  offset="1" style="stop-color:#328DD9"/>
	</linearGradient>
	<path style="fill:url(#SVGID_00000020363700802599108990000013141357139924306564_);" d="M1433.8,256.5l-145-145
		c-11.6-11.6-11.6-30.4,0-42l60.7-60.7c11.6-11.6,30.4-11.6,42,0l145,145c11.6,11.6,11.6,30.4,0,42l-60.7,60.7
		C1464.2,268.1,1445.4,268.1,1433.8,256.5z"/>
	<path class="st5" d="M1396.3,179h-15c-1.7,0-3.1-0.4-4.2-1.2c-1.1-0.8-1.8-1.8-2.3-3l-4.9-14.6h-31.8l-4.9,14.6
		c-0.4,1.1-1.1,2-2.2,2.9c-1.1,0.9-2.5,1.3-4.1,1.3h-15.1l32.3-83.5h19.8L1396.3,179z M1342.6,147.1h22.8l-7.7-22.9
		c-0.5-1.5-1.1-3.2-1.7-5.1c-0.7-2-1.3-4.1-2-6.4c-0.6,2.3-1.2,4.5-1.9,6.5c-0.7,2-1.3,3.7-1.8,5.2L1342.6,147.1z"/>
	<path class="st5" d="M1458,145.3c0.7,1.6,1.4,3.2,2,4.8c0.6-1.7,1.3-3.3,2.1-4.9c0.7-1.6,1.5-3.1,2.2-4.6l21.4-42.2
		c0.4-0.7,0.8-1.3,1.2-1.7s0.9-0.7,1.3-0.9c0.5-0.2,1.1-0.3,1.7-0.3c0.6,0,1.4,0,2.2,0h14.8V179h-17.1V131c0-2.3,0.1-4.9,0.3-7.6
		l-22.1,42.9c-0.7,1.3-1.6,2.4-2.8,3c-1.2,0.7-2.5,1-4,1h-2.6c-1.5,0-2.8-0.3-4-1c-1.2-0.7-2.1-1.7-2.8-3l-22.2-43
		c0.2,1.3,0.3,2.7,0.3,4c0.1,1.3,0.1,2.5,0.1,3.6V179H1413V95.5h14.8c0.8,0,1.6,0,2.2,0c0.6,0,1.2,0.1,1.7,0.3
		c0.5,0.2,0.9,0.5,1.3,0.9s0.8,1,1.2,1.7l21.5,42.4C1456.5,142.3,1457.3,143.8,1458,145.3z"/>
	<g>
		<g>
			<path class="st5" d="M1642.3,103.5v13.3h-38.5c-6.8,0-9.8,3.7-9.8,9c0,4.6,2.3,9,11.1,9h17.6c20.5,0,25.3,11.5,25.3,22.4
				c0,12.8-6.8,22.2-24,22.2h-41.9V166h42.3c7.1,0,10.4-3.9,10.4-9.4c0-4.9-2.6-9.4-11.8-9.4h-17.5c-20.1,0-24.7-11.3-24.7-21.9
				c0-12.6,6.7-21.8,23.4-21.8H1642.3z"/>
			<path class="st5" d="M1697,120c15.6,0,25.5,9.7,25.5,29.7c0,20-9.9,29.7-25.5,29.7h-12.4c-15.7,0-25.5-9.7-25.5-29.7
				c0-20,9.8-29.7,25.5-29.7H1697z M1685.7,131.4c-10.2,0-14.7,5.4-14.7,18.2c0,12.8,4.5,18.1,14.7,18.1h10.1
				c10.1,0,14.7-5.3,14.7-18.1c0-12.8-4.6-18.2-14.7-18.2H1685.7z"/>
			<path class="st5" d="M1748.4,94.3v85h-11.8v-85H1748.4z"/>
			<path class="st5" d="M1777,120v35.5c0,7,5.1,12.2,14.5,12.2h9.6c9.4,0,14.4-5.3,14.4-12.2V120h11.6v35.9
				c0,13.7-8.7,23.4-25.5,23.4h-10.9c-16.8,0-25.5-9.7-25.5-23.4V120H1777z"/>
			<path class="st5" d="M1845.7,120v-14h11.9v14h16.3v11.5h-16.3v28.1c0,6.6,2.3,8.9,7.9,8.9h8.1v10.9h-10.6
				c-12.1,0-17.4-4.9-17.4-20.4v-27.4h-8V120H1845.7z"/>
			<path class="st5" d="M1897.3,97.6v13.8h-11.9V97.6H1897.3z M1897.2,120v59.3h-11.8V120H1897.2z"/>
			<path class="st5" d="M1949.2,120c15.6,0,25.5,9.7,25.5,29.7c0,20-9.9,29.7-25.5,29.7h-12.4c-15.7,0-25.5-9.7-25.5-29.7
				c0-20,9.8-29.7,25.5-29.7H1949.2z M1937.9,131.4c-10.2,0-14.7,5.4-14.7,18.2c0,12.8,4.5,18.1,14.7,18.1h10.1
				c10.1,0,14.7-5.3,14.7-18.1c0-12.8-4.6-18.2-14.7-18.2H1937.9z"/>
			<path class="st5" d="M2021.4,120c19.9,0,29.6,9.5,29.6,25.9v33.4h-11.9v-33.4c0-9.3-5.3-14.5-17.7-14.5h-19.3
				c-1,0-1.4,0.6-1.4,1.7v46.2h-11.8v-50.1c0-7,2.3-9.2,8.2-9.2H2021.4z"/>
			<path class="st5" d="M2116.6,120v11.5h-32.5c-5.5,0-7.7,2.2-7.7,6.7c0,4.2,1.8,6.4,8.4,6.4h13.8c16.3,0,20.4,7.5,20.4,16.7
				c0,10.6-5.5,18-19.3,18h-34.2v-11.6h34.2c5.5,0,7.7-1.9,7.7-6.5c0-4.7-2.5-6.6-8.4-6.6h-13.9c-16.3,0-20.3-8.2-20.3-17.3
				c0-10.7,5.5-17.3,19.2-17.3H2116.6z"/>
		</g>
	</g>
</g>
<linearGradient id="SVGID_00000103979420231694327130000015277321755755087493_" gradientUnits="userSpaceOnUse" x1="-33.1069" y1="-417.927" x2="231.4192" y2="-417.927" gradientTransform="matrix(0.7071 0.7071 -0.7071 0.7071 -258.4528 -214.968)">
	<stop  offset="0" style="stop-color:#369BED"/>
	<stop  offset="1" style="stop-color:#328DD9"/>
</linearGradient>
<path style="fill:url(#SVGID_00000103979420231694327130000015277321755755087493_);" d="M128.3-316.5l-145-145
	c-11.6-11.6-11.6-30.4,0-42L44-564.2c11.6-11.6,30.4-11.6,42,0l145,145c11.6,11.6,11.6,30.4,0,42l-60.7,60.7
	C158.7-304.9,139.9-304.9,128.3-316.5z"/>
<g class="st2">
	<image style="overflow:visible;" width="264" height="234" xlink:href="5A8C5621.png"  transform="matrix(1 0 0 1 -66 -553.9068)">
	</image>
</g>
<linearGradient id="SVGID_00000072980644308710037750000010040158445183297419_" gradientUnits="userSpaceOnUse" x1="-25.0827" y1="-440.3731" x2="239.4433" y2="-440.3731">
	<stop  offset="0" style="stop-color:#369BED"/>
	<stop  offset="1" style="stop-color:#328DD9"/>
</linearGradient>
<path style="fill:url(#SVGID_00000072980644308710037750000010040158445183297419_);" d="M209.7-367.7H4.6
	c-16.4,0-29.7-13.3-29.7-29.7v-85.8c0-16.4,13.3-29.7,29.7-29.7h205.1c16.4,0,29.7,13.3,29.7,29.7v85.8
	C239.4-381,226.1-367.7,209.7-367.7z"/>
<linearGradient id="SVGID_00000090291276784948788560000011456977267494175675_" gradientUnits="userSpaceOnUse" x1="-25.0827" y1="-440.3731" x2="239.4433" y2="-440.3731">
	<stop  offset="0" style="stop-color:#369BED"/>
	<stop  offset="1" style="stop-color:#328DD9"/>
</linearGradient>
<path style="fill:url(#SVGID_00000090291276784948788560000011456977267494175675_);" d="M209.7-367.7H4.6
	c-16.4,0-29.7-13.3-29.7-29.7v-85.8c0-16.4,13.3-29.7,29.7-29.7h205.1c16.4,0,29.7,13.3,29.7,29.7v85.8
	C239.4-381,226.1-367.7,209.7-367.7z"/>
<linearGradient id="SVGID_00000138545078124950130000000009860360306395479993_" gradientUnits="userSpaceOnUse" x1="-33.1069" y1="-417.927" x2="231.4192" y2="-417.927" gradientTransform="matrix(0.7071 0.7071 -0.7071 0.7071 -258.4528 -214.968)">
	<stop  offset="0" style="stop-color:#369BED"/>
	<stop  offset="1" style="stop-color:#328DD9"/>
</linearGradient>
<path style="fill:url(#SVGID_00000138545078124950130000000009860360306395479993_);" d="M128.3-316.5l-145-145
	c-11.6-11.6-11.6-30.4,0-42L44-564.2c11.6-11.6,30.4-11.6,42,0l145,145c11.6,11.6,11.6,30.4,0,42l-60.7,60.7
	C158.7-304.9,139.9-304.9,128.3-316.5z"/>
<g class="st2">
	<image style="overflow:visible;" width="264" height="234" xlink:href="5A8C5627.png"  transform="matrix(1 0 0 1 -66 -553.9068)">
	</image>
</g>
<linearGradient id="SVGID_00000159465212937719871560000008276203581146927549_" gradientUnits="userSpaceOnUse" x1="-25.0827" y1="-440.3731" x2="239.4433" y2="-440.3731">
	<stop  offset="0" style="stop-color:#369BED"/>
	<stop  offset="1" style="stop-color:#328DD9"/>
</linearGradient>
<path style="fill:url(#SVGID_00000159465212937719871560000008276203581146927549_);" d="M209.7-367.7H4.6
	c-16.4,0-29.7-13.3-29.7-29.7v-85.8c0-16.4,13.3-29.7,29.7-29.7h205.1c16.4,0,29.7,13.3,29.7,29.7v85.8
	C239.4-381,226.1-367.7,209.7-367.7z"/>
<linearGradient id="SVGID_00000100345747852571766660000006553781295898383536_" gradientUnits="userSpaceOnUse" x1="-25.0827" y1="-440.3731" x2="239.4433" y2="-440.3731">
	<stop  offset="0" style="stop-color:#369BED"/>
	<stop  offset="1" style="stop-color:#328DD9"/>
</linearGradient>
<path style="fill:url(#SVGID_00000100345747852571766660000006553781295898383536_);" d="M209.7-367.7H4.6
	c-16.4,0-29.7-13.3-29.7-29.7v-85.8c0-16.4,13.3-29.7,29.7-29.7h205.1c16.4,0,29.7,13.3,29.7,29.7v85.8
	C239.4-381,226.1-367.7,209.7-367.7z"/>
<g>
	<image style="overflow:visible;" width="157" height="156" xlink:href="5A8C5620.png"  transform="matrix(1 0 0 1 -33 -510.9068)">
	</image>
</g>
<g>
	<image style="overflow:visible;" width="167" height="156" xlink:href="5A8C562E.png"  transform="matrix(1 0 0 1 68 -510.9068)">
	</image>
</g>
<path class="st5" d="M90.8-393.9h-15c-1.7,0-3.1-0.4-4.2-1.2c-1.1-0.8-1.8-1.8-2.3-3l-4.9-14.6H32.7l-4.9,14.6
	c-0.4,1.1-1.1,2-2.2,2.9c-1.1,0.9-2.5,1.3-4.1,1.3H6.3l32.3-83.5h19.8L90.8-393.9z M37.1-425.9H60l-7.7-22.9
	c-0.5-1.5-1.1-3.2-1.7-5.1c-0.7-2-1.3-4.1-2-6.4c-0.6,2.3-1.2,4.5-1.9,6.5c-0.7,2-1.3,3.7-1.8,5.2L37.1-425.9z"/>
<path class="st5" d="M152.5-427.6c0.7,1.6,1.4,3.2,2,4.8c0.6-1.7,1.3-3.3,2.1-4.9c0.7-1.6,1.5-3.1,2.2-4.6l21.4-42.2
	c0.4-0.7,0.8-1.3,1.2-1.7s0.9-0.7,1.3-0.9c0.5-0.2,1.1-0.3,1.7-0.3c0.6,0,1.4,0,2.2,0h14.8v83.5h-17.1V-442c0-2.3,0.1-4.9,0.3-7.6
	l-22.1,42.9c-0.7,1.3-1.6,2.4-2.8,3c-1.2,0.7-2.5,1-4,1h-2.6c-1.5,0-2.8-0.3-4-1c-1.2-0.7-2.1-1.7-2.8-3l-22.2-43
	c0.2,1.3,0.3,2.7,0.3,4c0.1,1.3,0.1,2.5,0.1,3.6v48.1h-17.1v-83.5h14.8c0.8,0,1.6,0,2.2,0c0.6,0,1.2,0.1,1.7,0.3
	c0.5,0.2,0.9,0.5,1.3,0.9c0.4,0.4,0.8,1,1.2,1.7l21.5,42.4C151.1-430.7,151.8-429.2,152.5-427.6z"/>
<path class="st14" d="M336.8-469.5v13.3h-38.5c-6.8,0-9.8,3.7-9.8,9c0,4.6,2.3,9,11.1,9h17.6c20.5,0,25.3,11.5,25.3,22.4
	c0,12.8-6.8,22.2-24,22.2h-41.9v-13.3H319c7.1,0,10.4-3.9,10.4-9.4c0-4.9-2.6-9.4-11.8-9.4h-17.5c-20.1,0-24.7-11.3-24.7-21.9
	c0-12.6,6.7-21.8,23.4-21.8H336.8z"/>
<path class="st14" d="M391.5-453c15.6,0,25.5,9.7,25.5,29.7c0,20-9.9,29.7-25.5,29.7h-12.4c-15.7,0-25.5-9.7-25.5-29.7
	c0-20,9.8-29.7,25.5-29.7H391.5z M380.3-441.5c-10.2,0-14.7,5.4-14.7,18.2c0,12.8,4.5,18.1,14.7,18.1h10.1
	c10.1,0,14.7-5.3,14.7-18.1c0-12.8-4.6-18.2-14.7-18.2H380.3z"/>
<path class="st14" d="M443-478.7v85h-11.8v-85H443z"/>
<path class="st14" d="M471.5-453v35.5c0,7,5.1,12.2,14.5,12.2h9.6c9.4,0,14.4-5.3,14.4-12.2V-453h11.6v35.9
	c0,13.7-8.7,23.4-25.5,23.4h-10.9c-16.8,0-25.5-9.7-25.5-23.4V-453H471.5z"/>
<path class="st14" d="M540.2-453v-14h11.9v14h16.3v11.5h-16.3v28.1c0,6.6,2.3,8.9,7.9,8.9h8.1v10.9h-10.6
	c-12.1,0-17.4-4.9-17.4-20.4v-27.4h-8V-453H540.2z"/>
<path class="st14" d="M591.8-475.3v13.8h-11.9v-13.8H591.8z M591.7-453v59.3h-11.8V-453H591.7z"/>
<path class="st14" d="M643.7-453c15.6,0,25.5,9.7,25.5,29.7c0,20-9.9,29.7-25.5,29.7h-12.4c-15.7,0-25.5-9.7-25.5-29.7
	c0-20,9.8-29.7,25.5-29.7H643.7z M632.5-441.5c-10.2,0-14.7,5.4-14.7,18.2c0,12.8,4.5,18.1,14.7,18.1h10.1
	c10.1,0,14.7-5.3,14.7-18.1c0-12.8-4.6-18.2-14.7-18.2H632.5z"/>
<path class="st14" d="M715.9-453c19.9,0,29.6,9.5,29.6,25.9v33.4h-11.9V-427c0-9.3-5.3-14.5-17.7-14.5h-19.3c-1,0-1.4,0.6-1.4,1.7
	v46.2h-11.8v-50.1c0-7,2.3-9.2,8.2-9.2H715.9z"/>
<path class="st14" d="M811.1-453v11.5h-32.5c-5.5,0-7.7,2.2-7.7,6.7c0,4.2,1.8,6.4,8.4,6.4h13.8c16.3,0,20.4,7.5,20.4,16.7
	c0,10.6-5.5,18-19.3,18H760v-11.6h34.2c5.5,0,7.7-1.9,7.7-6.5c0-4.7-2.5-6.6-8.4-6.6h-13.9c-16.3,0-20.3-8.2-20.3-17.3
	c0-10.7,5.5-17.3,19.2-17.3H811.1z"/>
<rect x="101.6" y="-477.4" class="st15" width="6.7" height="84"/>
<rect x="14.1" y="-483" transform="matrix(0.9313 0.3643 -0.3643 0.9313 -158.1235 -36.8567)" class="st15" width="9" height="91"/>
<g>
	
		<linearGradient id="SVGID_00000132088394791714027030000000024473115684621491_" gradientUnits="userSpaceOnUse" x1="0.3144" y1="132.5775" x2="264.8405" y2="132.5775">
		<stop  offset="0" style="stop-color:#369BED"/>
		<stop  offset="1" style="stop-color:#328DD9"/>
	</linearGradient>
	<path style="fill:url(#SVGID_00000132088394791714027030000000024473115684621491_);" d="M235.1,205.2H30
		c-16.4,0-29.7-13.3-29.7-29.7V89.7c0-16.4,13.3-29.7,29.7-29.7h205.1c16.4,0,29.7,13.3,29.7,29.7v85.8
		C264.8,191.9,251.5,205.2,235.1,205.2z"/>
	
		<linearGradient id="SVGID_00000076566252277804214590000002016115708040217746_" gradientUnits="userSpaceOnUse" x1="389.9889" y1="-30.7483" x2="654.5149" y2="-30.7483" gradientTransform="matrix(0.7071 0.7071 -0.7071 0.7071 -258.4528 -214.968)">
		<stop  offset="0" style="stop-color:#369BED"/>
		<stop  offset="1" style="stop-color:#328DD9"/>
	</linearGradient>
	<path style="fill:url(#SVGID_00000076566252277804214590000002016115708040217746_);" d="M153.7,256.5l-145-145
		c-11.6-11.6-11.6-30.4,0-42L69.4,8.7c11.6-11.6,30.4-11.6,42,0l145,145c11.6,11.6,11.6,30.4,0,42l-60.7,60.7
		C184.1,268.1,165.3,268.1,153.7,256.5z"/>
	<path class="st5" d="M116.2,179h-15c-1.7,0-3.1-0.4-4.2-1.2c-1.1-0.8-1.8-1.8-2.3-3l-4.9-14.6H58.1l-4.9,14.6
		c-0.4,1.1-1.1,2-2.2,2.9c-1.1,0.9-2.5,1.3-4.1,1.3H31.7L64,95.5h19.8L116.2,179z M62.5,147.1h22.8l-7.7-22.9
		c-0.5-1.5-1.1-3.2-1.7-5.1c-0.7-2-1.3-4.1-2-6.4c-0.6,2.3-1.2,4.5-1.9,6.5c-0.7,2-1.3,3.7-1.8,5.2L62.5,147.1z"/>
	<path class="st5" d="M177.9,145.3c0.7,1.6,1.4,3.2,2,4.8c0.6-1.7,1.3-3.3,2.1-4.9c0.7-1.6,1.5-3.1,2.2-4.6l21.4-42.2
		c0.4-0.7,0.8-1.3,1.2-1.7s0.9-0.7,1.3-0.9c0.5-0.2,1.1-0.3,1.7-0.3c0.6,0,1.4,0,2.2,0h14.8V179h-17.1V131c0-2.3,0.1-4.9,0.3-7.6
		L188,166.3c-0.7,1.3-1.6,2.4-2.8,3c-1.2,0.7-2.5,1-4,1h-2.6c-1.5,0-2.8-0.3-4-1c-1.2-0.7-2.1-1.7-2.8-3l-22.2-43
		c0.2,1.3,0.3,2.7,0.3,4c0.1,1.3,0.1,2.5,0.1,3.6V179H133V95.5h14.8c0.8,0,1.6,0,2.2,0c0.6,0,1.2,0.1,1.7,0.3
		c0.5,0.2,0.9,0.5,1.3,0.9s0.8,1,1.2,1.7l21.5,42.4C176.5,142.3,177.2,143.8,177.9,145.3z"/>
	<g>
		<g>
			<path class="st14" d="M362.2,103.5v13.3h-38.5c-6.8,0-9.8,3.7-9.8,9c0,4.6,2.3,9,11.1,9h17.6c20.5,0,25.3,11.5,25.3,22.4
				c0,12.8-6.8,22.2-24,22.2h-41.9V166h42.3c7.1,0,10.4-3.9,10.4-9.4c0-4.9-2.6-9.4-11.8-9.4h-17.5c-20.1,0-24.7-11.3-24.7-21.9
				c0-12.6,6.7-21.8,23.4-21.8H362.2z"/>
			<path class="st14" d="M416.9,120c15.6,0,25.5,9.7,25.5,29.7c0,20-9.9,29.7-25.5,29.7h-12.4c-15.7,0-25.5-9.7-25.5-29.7
				c0-20,9.8-29.7,25.5-29.7H416.9z M405.7,131.4c-10.2,0-14.7,5.4-14.7,18.2c0,12.8,4.5,18.1,14.7,18.1h10.1
				c10.1,0,14.7-5.3,14.7-18.1c0-12.8-4.6-18.2-14.7-18.2H405.7z"/>
			<path class="st14" d="M468.4,94.3v85h-11.8v-85H468.4z"/>
			<path class="st14" d="M496.9,120v35.5c0,7,5.1,12.2,14.5,12.2h9.6c9.4,0,14.4-5.3,14.4-12.2V120h11.6v35.9
				c0,13.7-8.7,23.4-25.5,23.4h-10.9c-16.8,0-25.5-9.7-25.5-23.4V120H496.9z"/>
			<path class="st14" d="M565.6,120v-14h11.9v14h16.3v11.5h-16.3v28.1c0,6.6,2.3,8.9,7.9,8.9h8.1v10.9H583
				c-12.1,0-17.4-4.9-17.4-20.4v-27.4h-8V120H565.6z"/>
			<path class="st14" d="M617.2,97.6v13.8h-11.9V97.6H617.2z M617.1,120v59.3h-11.8V120H617.1z"/>
			<path class="st14" d="M669.1,120c15.6,0,25.5,9.7,25.5,29.7c0,20-9.9,29.7-25.5,29.7h-12.4c-15.7,0-25.5-9.7-25.5-29.7
				c0-20,9.8-29.7,25.5-29.7H669.1z M657.9,131.4c-10.2,0-14.7,5.4-14.7,18.2c0,12.8,4.5,18.1,14.7,18.1H668
				c10.1,0,14.7-5.3,14.7-18.1c0-12.8-4.6-18.2-14.7-18.2H657.9z"/>
			<path class="st14" d="M741.3,120c19.9,0,29.6,9.5,29.6,25.9v33.4H759v-33.4c0-9.3-5.3-14.5-17.7-14.5H722c-1,0-1.4,0.6-1.4,1.7
				v46.2h-11.8v-50.1c0-7,2.3-9.2,8.2-9.2H741.3z"/>
			<path class="st14" d="M836.5,120v11.5H804c-5.5,0-7.7,2.2-7.7,6.7c0,4.2,1.8,6.4,8.4,6.4h13.8c16.3,0,20.4,7.5,20.4,16.7
				c0,10.6-5.5,18-19.3,18h-34.2v-11.6h34.2c5.5,0,7.7-1.9,7.7-6.5c0-4.7-2.5-6.6-8.4-6.6H805c-16.3,0-20.3-8.2-20.3-17.3
				c0-10.7,5.5-17.3,19.2-17.3H836.5z"/>
		</g>
	</g>
</g>
<image style="overflow:visible;" width="1495" height="789" xlink:href="5A8C5621.jpg"  transform="matrix(1 0 0 1 3233.6614 -346.2132)">
</image>
<rect x="3399.7" y="-339.5" class="st0" width="1176.4" height="120.4"/>
<image style="overflow:visible;" width="3689" height="1106" xlink:href="5A8C562F.png"  transform="matrix(5.655069e-02 0 0 5.655069e-02 3418.2231 -323.5793)">
</image>
<image style="overflow:visible;" width="1275" height="1106" xlink:href="5A8C5622.png"  transform="matrix(0.7309 0 0 0.7309 571.4976 -1679.7506)">
</image>
<g>
	<defs>
		<rect id="SVGID_00000085968912687810221000000004868768841392720818_" x="3915.4" y="-312.1" width="620.1" height="59.7"/>
	</defs>
	<clipPath id="SVGID_00000068659205783787262030000013197783766120803502_">
		<use xlink:href="#SVGID_00000085968912687810221000000004868768841392720818_"  style="overflow:visible;"/>
	</clipPath>
	<g style="clip-path:url(#SVGID_00000068659205783787262030000013197783766120803502_);">
		
			<image style="overflow:visible;" width="1495" height="789" xlink:href="5A8C5623.jpg"  transform="matrix(1 0 0 1 3222.0483 -312.1375)">
		</image>
	</g>
</g>
</svg>
