<?xml version="1.0" encoding="utf-8"?>
<!-- Generator: Adobe Illustrator 26.0.0, SVG Export Plug-In . SVG Version: 6.00 Build 0)  -->
<svg version="1.1" id="Capa_1" xmlns="http://www.w3.org/2000/svg" xmlns:xlink="http://www.w3.org/1999/xlink" x="0px" y="0px"
	 viewBox="0 0 839.6 265.2" style="enable-background:new 0 0 839.6 265.2;" xml:space="preserve">
<style type="text/css">
	.st0{fill:url(#SVGID_1_);}
	.st1{fill:url(#SVGID_00000143611593861745785930000011497676071990237088_);}
	.st2{fill:#FFFFFF;}
</style>
<linearGradient id="SVGID_1_" gradientUnits="userSpaceOnUse" x1="0" y1="133.5547" x2="264.526" y2="133.5547">
	<stop  offset="0" style="stop-color:#369BED"/>
	<stop  offset="1" style="stop-color:#328DD9"/>
</linearGradient>
<path class="st0" d="M234.8,206.2H29.7C13.3,206.2,0,192.9,0,176.5V90.6c0-16.4,13.3-29.7,29.7-29.7h205.1
	c16.4,0,29.7,13.3,29.7,29.7v85.8C264.5,192.9,251.2,206.2,234.8,206.2z"/>
<linearGradient id="SVGID_00000093895325916043811570000017427929769138317465_" gradientUnits="userSpaceOnUse" x1="198.6696" y1="10.5871" x2="463.1956" y2="10.5871" gradientTransform="matrix(0.7071 0.7071 -0.7071 0.7071 -94.2555 -107.9362)">
	<stop  offset="0" style="stop-color:#369BED"/>
	<stop  offset="1" style="stop-color:#328DD9"/>
</linearGradient>
<path style="fill:url(#SVGID_00000093895325916043811570000017427929769138317465_);" d="M153.4,257.4l-145-145
	c-11.6-11.6-11.6-30.4,0-42L69.1,9.7c11.6-11.6,30.4-11.6,42,0l145,145c11.6,11.6,11.6,30.4,0,42l-60.7,60.7
	C183.8,269,165,269,153.4,257.4z"/>
<path class="st2" d="M115.9,180h-15c-1.7,0-3.1-0.4-4.2-1.2c-1.1-0.8-1.8-1.8-2.3-3l-4.9-14.6H57.8l-4.9,14.6
	c-0.4,1.1-1.1,2-2.2,2.9c-1.1,0.9-2.5,1.3-4.1,1.3H31.4l32.3-83.5h19.8L115.9,180z M62.2,148H85l-7.7-22.9c-0.5-1.5-1.1-3.2-1.7-5.1
	c-0.7-2-1.3-4.1-2-6.4c-0.6,2.3-1.2,4.5-1.9,6.5c-0.7,2-1.3,3.7-1.8,5.2L62.2,148z"/>
<path class="st2" d="M177.6,146.3c0.7,1.6,1.4,3.2,2,4.8c0.6-1.7,1.3-3.3,2.1-4.9c0.7-1.6,1.5-3.1,2.2-4.6l21.4-42.2
	c0.4-0.7,0.8-1.3,1.2-1.7s0.9-0.7,1.3-0.9c0.5-0.2,1.1-0.3,1.7-0.3c0.6,0,1.4,0,2.2,0h14.8V180h-17.1v-48.1c0-2.3,0.1-4.9,0.3-7.6
	l-22.1,42.9c-0.7,1.3-1.6,2.4-2.8,3c-1.2,0.7-2.5,1-4,1h-2.6c-1.5,0-2.8-0.3-4-1c-1.2-0.7-2.1-1.7-2.8-3l-22.2-43
	c0.2,1.3,0.3,2.7,0.3,4c0.1,1.3,0.1,2.5,0.1,3.6V180h-17.1V96.5h14.8c0.8,0,1.6,0,2.2,0c0.6,0,1.2,0.1,1.7,0.3
	c0.5,0.2,0.9,0.5,1.3,0.9s0.8,1,1.2,1.7l21.5,42.4C176.1,143.2,176.9,144.8,177.6,146.3z"/>
<g>
	<g>
		<path class="st2" d="M361.9,104.5v13.3h-38.5c-6.8,0-9.8,3.7-9.8,9c0,4.6,2.3,9,11.1,9h17.6c20.5,0,25.3,11.5,25.3,22.4
			c0,12.8-6.8,22.2-24,22.2h-41.9V167h42.3c7.1,0,10.4-3.9,10.4-9.4c0-4.9-2.6-9.4-11.8-9.4h-17.5c-20.1,0-24.7-11.3-24.7-21.9
			c0-12.6,6.7-21.8,23.4-21.8H361.9z"/>
		<path class="st2" d="M416.6,121c15.6,0,25.5,9.7,25.5,29.7c0,20-9.9,29.7-25.5,29.7h-12.4c-15.7,0-25.5-9.7-25.5-29.7
			c0-20,9.8-29.7,25.5-29.7H416.6z M405.3,132.4c-10.2,0-14.7,5.4-14.7,18.2c0,12.8,4.5,18.1,14.7,18.1h10.1
			c10.1,0,14.7-5.3,14.7-18.1c0-12.8-4.6-18.2-14.7-18.2H405.3z"/>
		<path class="st2" d="M468.1,95.2v85h-11.8v-85H468.1z"/>
		<path class="st2" d="M496.6,121v35.5c0,7,5.1,12.2,14.5,12.2h9.6c9.4,0,14.4-5.3,14.4-12.2V121h11.6v35.9
			c0,13.7-8.7,23.4-25.5,23.4h-10.9c-16.8,0-25.5-9.7-25.5-23.4V121H496.6z"/>
		<path class="st2" d="M565.3,121v-14h11.9v14h16.3v11.5h-16.3v28.1c0,6.6,2.3,8.9,7.9,8.9h8.1v10.9h-10.6
			c-12.1,0-17.4-4.9-17.4-20.4v-27.4h-8V121H565.3z"/>
		<path class="st2" d="M616.9,98.6v13.8H605V98.6H616.9z M616.8,121v59.3H605V121H616.8z"/>
		<path class="st2" d="M668.8,121c15.6,0,25.5,9.7,25.5,29.7c0,20-9.9,29.7-25.5,29.7h-12.4c-15.7,0-25.5-9.7-25.5-29.7
			c0-20,9.8-29.7,25.5-29.7H668.8z M657.5,132.4c-10.2,0-14.7,5.4-14.7,18.2c0,12.8,4.5,18.1,14.7,18.1h10.1
			c10.1,0,14.7-5.3,14.7-18.1c0-12.8-4.6-18.2-14.7-18.2H657.5z"/>
		<path class="st2" d="M741,121c19.9,0,29.6,9.5,29.6,25.9v33.4h-11.9v-33.4c0-9.3-5.3-14.5-17.7-14.5h-19.3c-1,0-1.4,0.6-1.4,1.7
			v46.2h-11.8v-50.1c0-7,2.3-9.2,8.2-9.2H741z"/>
		<path class="st2" d="M836.2,121v11.5h-32.5c-5.5,0-7.7,2.2-7.7,6.7c0,4.2,1.8,6.4,8.4,6.4h13.8c16.3,0,20.4,7.5,20.4,16.7
			c0,10.6-5.5,18-19.3,18h-34.2v-11.6h34.2c5.5,0,7.7-1.9,7.7-6.5c0-4.7-2.5-6.6-8.4-6.6h-13.9c-16.3,0-20.3-8.2-20.3-17.3
			c0-10.7,5.5-17.3,19.2-17.3H836.2z"/>
	</g>
</g>
</svg>
